# xmcd
#
# Track frame offsets:
#  150
#  13844
#  31215
#  50728
#  68391
#  82396
#  95741
#  109445
#  127428
#  144876
#  159762
#  171786
#  188229
#
# Disc length: 2747 seconds
#
# Revision: 0
# Processed by: cddbd v1.5.2PL0 Copyright (c) Steve Scherf et al.
# Submitted via: AltoMP3_Maker 3.0
#
DISCID=b70ab90d
DTITLE=McAlister Kemp - Country Proud
DYEAR=1900
DGENRE=
TTITLE0=Country Proud
TTITLE1=A Good Idea
TTITLE2=Something to Build On
TTITLE3=Finish What You Started
TTITLE4=Til The Wheels Fall Off
TTITLE5=Feed My Tractor
TTITLE6=After Midnight
TTITLE7=Home
TTITLE8=That Kind O' Love
TTITLE9=Songs That Make Us Country
TTITLE10=Cold Beer Hot Women
TTITLE11=One Hell of a Lucky Man
TTITLE12=You Get What's Coming to You
EXTD=
EXTT0=
EXTT1=
EXTT2=
EXTT3=
EXTT4=
EXTT5=
EXTT6=
EXTT7=
EXTT8=
EXTT9=
EXTT10=
EXTT11=
EXTT12=
PLAYORDER=
